<?xml version="1.0" encoding="UTF-8" standalone="no"?>
<!-- Created with Inkscape (http://www.inkscape.org/) -->

<svg
   xmlns:dc="http://purl.org/dc/elements/1.1/"
   xmlns:cc="http://creativecommons.org/ns#"
   xmlns:rdf="http://www.w3.org/1999/02/22-rdf-syntax-ns#"
   xmlns:svg="http://www.w3.org/2000/svg"
   xmlns="http://www.w3.org/2000/svg"
   xmlns:sodipodi="http://sodipodi.sourceforge.net/DTD/sodipodi-0.dtd"
   xmlns:inkscape="http://www.inkscape.org/namespaces/inkscape"
   id="svg2"
   version="1.1"
   inkscape:version="0.48.2 r9819"
   width="320"
   height="400"
   sodipodi:docname="highfive 01.svg">
  <metadata
     id="metadata8">
    <rdf:RDF>
      <cc:Work
         rdf:about="">
        <dc:format>image/svg+xml</dc:format>
        <dc:type
           rdf:resource="http://purl.org/dc/dcmitype/StillImage" />
        <dc:title></dc:title>
      </cc:Work>
    </rdf:RDF>
  </metadata>
  <defs
     id="defs6" />
  <sodipodi:namedview
     pagecolor="#ffffff"
     bordercolor="#666666"
     borderopacity="1"
     objecttolerance="10"
     gridtolerance="10"
     guidetolerance="10"
     inkscape:pageopacity="0"
     inkscape:pageshadow="2"
     inkscape:window-width="1338"
     inkscape:window-height="850"
     id="namedview4"
     showgrid="false"
     fit-margin-top="0"
     fit-margin-left="0"
     fit-margin-right="0"
     fit-margin-bottom="0"
     inkscape:zoom="1.161167"
     inkscape:cx="109.40951"
     inkscape:cy="205.45855"
     inkscape:window-x="170"
     inkscape:window-y="-11"
     inkscape:window-maximized="0"
     inkscape:current-layer="g3786" />
  <g
     id="g3800"
     transform="matrix(0.97918962,0,0,0.93456852,1.2206177,22.511398)">
    <g
       id="g3786">
      <rect
         style="fill:#ece5e5;fill-opacity:1;stroke:#301919;stroke-width:0;stroke-linecap:square;stroke-linejoin:bevel;stroke-miterlimit:4;stroke-opacity:1;stroke-dasharray:none;stroke-dashoffset:0"
         id="rect3763"
         width="328.2558"
         height="428.70563"
         x="0.053123474"
         y="-23.031521"
         ry="0" />
      <path
         style="fill:#0d0000;fill-opacity:1;stroke:#000000;stroke-width:1.04534829px;stroke-linecap:butt;stroke-linejoin:miter;stroke-opacity:1"
         d="m 187.215,51.371437 c 0,-1.266514 -1.06008,-7.110146 -1.06008,-7.110146 l 1.10999,-2.335344 0.555,-4.865316 0.83251,-2.335344 1.38753,-0.194606 0.55498,5.254529 0.83251,-7.395277 1.665,-0.58383 0.27749,5.059922 0.83252,-6.032987 1.66501,0 1.10998,0.389224 0,3.697633 0.55502,2.335354 0.55499,-5.059922 2.22003,-0.194618 1.66499,2.724578 1.66503,5.838371 0.27749,3.697633 0.83251,1.946131 3.33,-1.556897 3.05249,-0.778448 3.88506,1.167672 0.555,1.556906 -2.49751,0 -2.77505,0 -2.49749,2.140738 -3.0525,2.724568 -3.33003,0.194618 -1.9425,1.751512 -0.83249,1.167672 -4.44003,7.006042 -3.33002,5.25454 -0.55502,6.227604 -2.21999,6.616819 0.83249,3.113802 9.15754,7.979095 12.21004,6.81146 c 0,0 5.27256,1.7515 5.82755,0.97305 0.555,-0.77844 2.49752,-6.227592 2.49752,-6.227592 l 0.55502,-0.973065 -3.88505,-2.72458 -1.38751,-3.113801 0.55502,-1.556885 2.775,-0.583841 -0.83251,-5.059933 3.88501,-4.865315 6.66003,-1.94612 6.10504,-1.556896 10.54504,3.113792 2.77503,7.7845 0.55497,2.529972 -0.83247,1.946119 1.665,0.389234 -8.15503,8.276106 c 1.42508,0.130421 -4.8113,4.855315 9.34201,7.48751 l 5.47304,2.33533 8.32502,5.83841 5.82755,9.34137 c 0,0 4.1625,11.67677 4.7175,12.45523 0.555,0.77843 3.33002,10.89828 3.33002,10.89828 l 2.775,6.22761 4.71752,11.67675 -0.2775,3.11381 4.44004,7.00603 9.15753,8.75757 5.82752,5.83837 -0.55499,1.75152 -6.38253,-2.33536 0.8325,6.22761 -1.38752,2.91919 -8.04752,1.5569 -3.88503,-2.33536 c 0,0 -1.11,-5.44915 -1.3875,-6.22759 -0.27749,-0.77846 -1.66499,-9.14679 -1.94251,-10.50908 -0.27752,-1.36229 -5.55002,-9.536 -7.21503,-11.28751 -1.66498,-1.75153 -8.04752,-9.92524 -9.15752,-10.89832 -1.11001,-0.97306 -2.22002,-2.91919 -2.77502,-3.89223 -0.55499,-0.97308 -4.16251,-3.30843 -4.16251,-3.30843 l -0.55502,7.58991 1.94252,15.37436 5.82753,10.31446 12.76504,34.83566 -0.555,7.20065 4.71751,15.17978 17.48257,35.61409 2.22001,3.11379 12.48756,5.05993 1.665,3.50302 -10.54503,1.94613 -6.66005,1.5569 -9.15753,-2.72458 -11.65504,0.38923 c 0,0 -1.94249,-4.47609 -1.94249,-5.25453 0,-0.77847 -3.60751,-4.28148 -3.60751,-4.28148 l -4.16254,-1.75151 -18.31509,-55.65918 c 0,0 -7.21501,-9.1468 -8.60251,-10.50907 -1.38753,-1.3623 -6.66003,-6.42222 -6.66003,-6.42222 l -11.10005,21.40738 -3.88502,9.92524 -2.49752,14.2067 0.83251,17.70974 -6.10505,11.09292 -1.10998,6.033 c 0,0 -3.885,2.91917 -3.885,3.69762 0,0.77845 -0.83252,6.61682 -0.83252,6.61682 0,0 -14.98508,2.14074 -15.54005,1.16768 -0.55499,-0.97306 -3.88501,-6.42223 -3.60752,-7.20066 0.27749,-0.77845 -1.665,-4.86531 -1.665,-5.64376 0,-0.77845 5.55003,-5.83837 5.55003,-5.83837 l -1.66504,-5.44916 4.44004,-49.43158 2.77499,-21.99121 2.22001,-41.25784 -1.11001,-15.17978 -4.16249,-10.8983 -7.49253,-19.85048 -8.88004,-13.428275 -4.44003,-9.341407 -0.8325,-7.006041 2.22,-7.979118 8.04754,-9.925237 5.27252,-8.757545 z"
         id="path2987"
         inkscape:connector-curvature="0"
         sodipodi:nodetypes="cccccccccccccccccccccccccccccccccccccccscccccccccccccccccccccccccccccccccccsssscccccccccccccccscccscccccccscsssccccccccccccccc" />
      <path
         style="fill:#0d0000;fill-opacity:1;stroke:#000000;stroke-width:1.04534829px;stroke-linecap:butt;stroke-linejoin:miter;stroke-opacity:1"
         d="m 151.51738,44.865648 4.23724,1.12064 1.74473,-9.71219 1.74478,-1.86774 1.24623,1.30742 -0.74776,-2.8016 2.49251,-0.56032 0.74774,2.98836 0.99698,-1.86772 1.99402,0.56031 0.49849,8.21802 2.24325,-5.60319 2.24324,1.12064 0,3.3619 -1.994,3.73547 0.74776,5.04288 -2.49252,3.73546 0.74777,11.39317 0.24924,13.26089 -1.24624,6.91061 -3.98799,8.218019 -8.97297,14.755073 -9.47147,10.2725 -1.99401,2.98836 -2.49248,13.07412 1.49548,10.83285 -2.99099,24.65405 -0.49849,8.03123 3.98798,13.44768 0.74775,11.20639 -1.74474,28.57627 -2.74174,19.05086 -2.74173,26.14824 0.74773,6.53706 0.74774,3.17514 11.21624,-0.18679 4.23724,5.04289 -18.1952,2.05451 -19.93999,0.18676 -4.73573,-0.74708 c 0,0 3.98799,-9.89899 4.23722,-11.01963 0.24928,-1.12063 1.74476,-23.34664 1.74476,-24.65403 0,-1.30742 -2.49248,-19.98474 -2.49248,-19.98474 0,0 0,-5.22963 0,-6.72382 0,-1.49418 -5.73273,-14.94185 -5.73273,-15.68894 0,-0.74709 -2.74177,-13.44765 -2.74177,-13.44765 l 2.00429,11.18725 5.25228,16.32574 2.23038,4.05165 -3.00646,5.97672 -24.924931,19.42442 c 0,0 -14.954965,10.27252 -15.453463,11.39316 -0.498499,1.12064 -0.747754,21.10537 -1.993996,21.29214 -1.246252,0.18677 -10.468475,0.74707 -10.468475,0.74707 l -5.234243,-5.60317 c 0,0 -0.498499,-4.10901 -0.747743,-5.22966 -0.249244,-1.12065 -0.996997,-3.73547 -1.993995,-5.04286 -0.996998,-1.30743 -5.732731,-9.33866 -5.732731,-9.33866 l 2.990993,-3.17514 21.435438,-17.55666 21.186195,-15.87572 -4.48649,-19.42441 c 0,0 -5.483465,-4.8561 -5.73272,-6.16351 -0.249244,-1.30741 -1.74474,-12.5138 -1.495496,-13.82122 0.249255,-1.3074 2.990982,-15.31538 2.990982,-15.31538 l 2.243239,-18.30377 -0.996998,-12.70058 -2.492472,11.39317 -4.4865,16.06248 -2.243239,16.80958 2.990992,6.35029 0.996987,7.28415 -3.738746,-4.8561 c 0,0 1.495507,5.6032 2.492505,6.1635 0.997008,0.56033 1.495496,5.22966 -0.249255,5.41643 -1.744741,0.18678 -10.468475,0 -10.468475,0 l -4.486479,-5.22966 -0.49851,-10.64605 -0.249244,-15.3154 4.48649,-18.86408 2.24325,-26.52178 c 0,0 12.960969,-16.6228 13.957956,-17.55667 0.996987,-0.93386 9.969976,-5.78995 9.969976,-5.78995 l 6.480485,-3.73546 c 0,0 2.243232,-2.98837 2.243232,-3.92225 0,-0.933864 -0.49851,-8.031253 -0.49851,-8.031253 l -2.990975,-8.217999 1.993985,-5.41643 8.225231,-3.36191 6.72976,-0.18679 9.22223,3.17516 4.46599,3.17515 2.76224,5.22964 -0.74774,10.085748 -0.49851,2.801604 9.47148,-5.603214 13.45947,-10.459278 1.24626,-9.33867 3.24023,-16.06248 -1.994,-9.89898 0.49851,-1.86773 -2.49251,-0.18678 -0.99698,-0.74709 z"
         id="path2989"
         inkscape:connector-curvature="0"
         sodipodi:nodetypes="cccccccccccccccccccccccccccccccccccccccccscssccccccssccsscccccsscccccccccccccccccsccsccccccccccccccccccc" />
      <g
         transform="matrix(1.0883423,0,0,1.0234809,3.7184338,-53.963978)"
         style="font-size:76.62347411999998300px;font-style:normal;font-variant:normal;font-weight:normal;font-stretch:normal;line-height:125%;letter-spacing:0px;word-spacing:0px;fill:#5f0000;fill-opacity:1;stroke:none;font-family:Impact;-inkscape-font-specification:Impact"
         id="text3759">
        <path
           d="m 33.823225,354.7617 0,13.61863 c 1.296993,-1.19719 2.700009,-2.09512 4.209053,-2.69379 1.509,-0.59858 3.124028,-0.89789 4.845088,-0.89794 2.64388,5e-5 4.894941,0.6735 6.753192,2.02035 1.858184,1.34694 2.993068,2.89962 3.404656,4.65802 0.411515,1.75849 0.617291,4.96984 0.617328,9.63405 l 0,34.23364 -15.115177,0 0,-34.9445 c -2.3e-5,-2.8933 -0.143442,-4.75151 -0.430259,-5.57466 -0.286861,-0.82306 -0.929131,-1.23461 -1.926811,-1.23465 -0.922893,4e-5 -1.546456,0.42406 -1.87069,1.27207 -0.324271,0.84808 -0.486398,2.5317 -0.48638,5.05086 l 0,35.43088 -15.115177,0 0,-60.57296 z"
           id="path3770"
           inkscape:connector-curvature="0"
           style="fill:#5f0000;fill-opacity:1" />
        <path
           d="m 74.379792,354.7617 0,7.89432 -15.564143,0 0,-7.89432 z m 0,10.92484 0,49.64812 -15.564143,0 0,-49.64812 z"
           id="path3772"
           inkscape:connector-curvature="0"
           style="fill:#5f0000;fill-opacity:1" />
        <path
           d="m 114.11326,365.68654 0,38.23691 c -4e-5,5.16311 -0.11852,8.49917 -0.35544,10.00819 -0.23699,1.50902 -1.0788,3.10534 -2.52543,4.78897 -1.4467,1.68361 -3.46081,2.96815 -6.04233,3.85362 -2.58158,0.88545 -5.830338,1.32818 -9.746294,1.32819 -4.813923,-1e-5 -8.680013,-0.81688 -11.59828,-2.45061 -2.91828,-1.63374 -4.427302,-4.84509 -4.52707,-9.63405 l 14.666212,0 c -1.7e-5,2.19494 0.798143,3.29241 2.394483,3.29241 1.147336,0 1.908083,-0.33672 2.282242,-1.01017 0.374116,-0.67345 0.561185,-2.0827 0.561207,-4.22776 l 0,-3.74138 c -1.297032,1.17231 -2.662635,2.05777 -4.096811,2.65638 -1.434213,0.59863 -2.936999,0.89794 -4.508364,0.89793 -2.718747,10e-6 -4.957338,-0.54873 -6.715778,-1.64621 -1.758454,-1.09746 -2.96193,-2.53789 -3.610432,-4.32129 -0.648509,-1.78338 -0.972761,-4.32128 -0.972759,-7.61371 l 0,-18.03345 c -2e-6,-4.7141 0.848043,-8.10628 2.544139,-10.17656 1.696086,-2.07018 4.277636,-3.1053 7.744657,-3.10535 1.895619,5e-5 3.622888,0.38666 5.181812,1.15983 1.55889,0.77327 2.949435,1.9331 4.17164,3.47949 l 1.084996,-3.74138 z M 98.960664,378.8562 c -2.2e-5,-2.26974 -0.13097,-3.7164 -0.392845,-4.34001 -0.261918,-0.62352 -0.841831,-0.9353 -1.739742,-0.93534 -0.873008,4e-5 -1.490335,0.35547 -1.851984,1.06629 -0.361684,0.7109 -0.542517,2.11392 -0.5425,4.20906 l 0,16.68655 c -1.7e-5,2.21991 0.137167,3.66034 0.411552,4.3213 0.27435,0.66099 0.848028,0.99148 1.721035,0.99146 0.997681,2e-5 1.646187,-0.39906 1.945518,-1.19724 0.299289,-0.79814 0.448944,-2.60648 0.448966,-5.425 z"
           id="path3774"
           inkscape:connector-curvature="0"
           style="fill:#5f0000;fill-opacity:1" />
        <path
           d="m 134.69085,354.7617 0,13.61863 c 1.29699,-1.19719 2.70001,-2.09512 4.20905,-2.69379 1.509,-0.59858 3.12403,-0.89789 4.84509,-0.89794 2.64388,5e-5 4.89494,0.6735 6.75319,2.02035 1.85818,1.34694 2.99307,2.89962 3.40466,4.65802 0.41151,1.75849 0.61729,4.96984 0.61732,9.63405 l 0,34.23364 -15.11517,0 0,-34.9445 c -3e-5,-2.8933 -0.14344,-4.75151 -0.43026,-5.57466 -0.28686,-0.82306 -0.92913,-1.23461 -1.92681,-1.23465 -0.9229,4e-5 -1.54646,0.42406 -1.87069,1.27207 -0.32427,0.84808 -0.4864,2.5317 -0.48638,5.05086 l 0,35.43088 -15.11518,0 0,-60.57296 z"
           id="path3776"
           inkscape:connector-curvature="0"
           style="fill:#5f0000;fill-opacity:1" />
        <path
           d="m 192.42036,354.7617 0,7.66983 c -3.11784,6e-5 -4.95735,0.14348 -5.51854,0.43026 -0.56122,0.28689 -0.84183,1.10376 -0.84181,2.45061 l 0,1.57138 6.36035,0 0,7.8569 -3.59173,0 0,40.59398 -15.11518,0 0,-40.59398 -3.10534,0 0,-7.8569 3.10534,0 c 0,-3.26742 0.11224,-5.44989 0.33673,-6.54742 0.22448,-1.09741 0.77945,-2.07641 1.66491,-2.93698 0.88546,-0.86046 2.12635,-1.5152 3.72268,-1.96423 1.59631,-0.4489 4.07809,-0.67339 7.44534,-0.67345 z"
           id="path3778"
           inkscape:connector-curvature="0"
           style="fill:#5f0000;fill-opacity:1" />
        <path
           d="m 210.86536,354.7617 0,7.89432 -15.56414,0 0,-7.89432 z m 0,10.92484 0,49.64812 -15.56414,0 0,-49.64812 z"
           id="path3780"
           inkscape:connector-curvature="0"
           style="fill:#5f0000;fill-opacity:1" />
        <path
           d="m 247.49347,365.68654 -7.07121,49.64812 -19.71708,0 -7.595,-49.64812 13.50638,0 4.22776,36.21656 c 0.32424,-2.64389 0.87297,-9.12895 1.64621,-19.45518 0.44895,-5.76169 0.9478,-11.34881 1.49655,-16.76138 z"
           id="path3782"
           inkscape:connector-curvature="0"
           style="fill:#5f0000;fill-opacity:1" />
        <path
           d="m 284.00935,391.38982 -19.56742,0 0,10.73776 c -2e-5,2.24484 0.16211,3.69151 0.48638,4.34 0.32424,0.64852 0.9478,0.97277 1.87069,0.97276 1.14734,1e-5 1.91432,-0.43025 2.30095,-1.29077 0.38659,-0.86051 0.57989,-2.52542 0.57992,-4.99475 l 0,-6.54741 14.32948,0 0,3.66655 c -3e-5,3.06795 -0.19334,5.42501 -0.57991,7.07121 -0.38665,1.64622 -1.29081,3.40466 -2.7125,5.27535 -1.42176,1.87069 -3.22386,3.27371 -5.4063,4.20905 -2.1825,0.93534 -4.91994,1.40302 -8.21233,1.40302 -3.19266,0 -6.01116,-0.46144 -8.45552,-1.38431 -2.44438,-0.92288 -4.34624,-2.18871 -5.7056,-3.7975 -1.35938,-1.60879 -2.30096,-3.37971 -2.82475,-5.31277 -0.52379,-1.93303 -0.78569,-4.7453 -0.78569,-8.43681 l 0,-14.47914 c 0,-4.33997 0.58615,-7.76333 1.75845,-10.27009 1.1723,-2.50668 3.09287,-4.42725 5.76173,-5.76173 2.66884,-1.33437 5.73677,-2.00159 9.2038,-2.00164 4.2402,5e-5 7.73839,0.80445 10.49457,2.41319 2.75612,1.60884 4.68916,3.74143 5.79914,6.39777 1.1099,2.65641 1.66488,6.39156 1.66491,11.20543 z m -15.15259,-8.08138 0,-3.62914 c -2e-5,-2.56904 -0.1372,-4.22772 -0.41155,-4.97604 -0.27439,-0.74823 -0.8356,-1.12237 -1.68362,-1.12241 -1.04761,4e-5 -1.69611,0.31806 -1.94552,0.95405 -0.24944,0.63608 -0.37416,2.35087 -0.37414,5.1444 l 0,3.62914 z"
           id="path3784"
           inkscape:connector-curvature="0"
           style="fill:#5f0000;fill-opacity:1" />
      </g>
    </g>
  </g>
</svg>
